:SAMPLES-PER-SECOND 30
:FULLY-SPECIFIED
:DEGREES
83
root  2.90302 39.9877 1.45313 -60.0626 -86.4012 57.7308
RightUpLeg  -0.0557478 -2.65434 -11.151
RightLeg  12.1981 -9.81481 -3.55437
RightFoot  -4.94767 -0.679898 11.5344
RightToes  7.56698e-010 0 -3.6325e-017
Spine  7.70996 -0.115739 -4.36478
Spine1  0.75199 0.13553 -3.91094
HEad  -7.08181 -9.66162 0.640756
LeftShoulder1  2.59348 -5.79041 -21.5563
LeftArm  -4.26605 6.53699 -47.1436
LeftForeArm  14.3636 -0.357516 -14.8962
LeftHand  -0.658603 0.783927 16.5908
RightShoulder  1.52987 2.68072 18.2501
RightArm  -3.9597 -6.98544 55.7623
RightForeArm  10.8221 14.1014 9.7813
RightHand  -0.744763 -0.359934 -17.1658
LeftUpLeg  0.385132 7.71692 2.43756
LeftLeg  8.57843 6.20406 1.45776
LeftFoot  -4.55908 0.474788 -7.54976
LeftToes  -3.13779e-010 -2.47553e-011 -5.36621e-011
84
root  2.83925 39.9757 1.13086 -46.1691 -85.9405 43.7939
RightUpLeg  0.0216432 -3.16492 -10.4914
RightLeg  12.7654 -10.5203 -3.72597
RightFoot  -4.77985 -0.68792 11.3975
RightToes  7.56698e-010 0 -3.6325e-017
Spine  8.33594 -0.23428 -4.0848
Spine1  1.13903 -0.0285331 -3.43471
HEad  -7.6462 -10.3138 0.789355
LeftShoulder1  2.60283 -5.8853 -21.3628
LeftArm  -1.38155 7.87471 -47.0342
LeftForeArm  13.2903 -2.19597 -15.078
LeftHand  -0.718796 0.721057 17.8753
RightShoulder  1.52336 2.65905 18.2301
RightArm  3.8256 -7.82596 56.2207
RightForeArm  3.4477 21.1176 6.17101
RightHand  -0.825933 -0.211439 -18.4763
LeftUpLeg  0.0773122 7.52206 3.01585
LeftLeg  9.04519 5.38189 1.79477
LeftFoot  -4.8207 0.478984 -7.90193
LeftToes  -3.13779e-010 -2.47553e-011 -5.36621e-011
85
root  2.82175 39.9962 0.851444 -33.4468 -85.133 31.0934
RightUpLeg  0.0631253 -4.39162 -9.97453
RightLeg  13.049 -10.387 -3.64522
RightFoot  -4.09699 -0.762714 11.5749
RightToes  7.56698e-010 0 -3.6325e-017
Spine  9.22679 -0.385294 -3.94428
Spine1  1.31422 -0.295696 -2.62296
HEad  -8.21304 -10.959 0.996887
LeftShoulder1  2.5491 -5.92496 -20.6289
LeftArm  5.16693 10.1882 -47.6677
LeftForeArm  7.3573 -7.07979 -14.509
LeftHand  -0.741483 0.914551 19.1988
RightShoulder  1.51657 2.61396 18.3084
RightArm  2.61221 -8.78742 55.8326
RightForeArm  6.80473 28.6124 5.63044
RightHand  -0.924004 0.085902 -19.5528
LeftUpLeg  -0.878367 7.04 3.52695
LeftLeg  10.2376 4.37383 2.09263
LeftFoot  -4.50563 0.524479 -8.31724
LeftToes  -3.13779e-010 -2.47553e-011 -5.36621e-011
86
root  2.87384 40.1041 0.655571 -24.2851 -83.9539 22.1522
RightUpLeg  -0.0814917 -6.13377 -9.88333
RightLeg  13.1387 -9.52016 -3.30137
RightFoot  -2.59654 -0.960448 12.2673
RightToes  7.56698e-010 0 -3.6325e-017
Spine  10.2623 -0.560402 -4.16741
Spine1  1.31477 -0.727845 -1.17642
HEad  -8.86751 -11.412 1.213
LeftShoulder1  2.46515 -5.90276 -19.7421
LeftArm  16.214 13.3515 -48.9302
LeftForeArm  -3.60727 -14.3895 -11.5795
LeftHand  -0.785865 0.819564 19.9248
RightShoulder  1.49081 2.4963 18.3709
RightArm  -1.31551 -9.60346 54.9913
RightForeArm  14.4648 37.5431 7.75123
RightHand  -0.975987 0.288454 -19.9208
LeftUpLeg  -2.94113 5.14282 3.77775
LeftLeg  12.5734 5.00574 2.58191
LeftFoot  -2.16425 0.80213 -9.74632
LeftToes  -3.13779e-010 -2.47553e-011 -5.36621e-011
87
root  2.97595 40.2877 0.616406 -17.5655 -83.1117 15.6465
RightUpLeg  -0.340571 -7.81275 -10.062
RightLeg  13.1176 -7.85473 -2.70318
RightFoot  -0.195257 -1.3748 13.9738
RightToes  7.56698e-010 0 -3.6325e-017
Spine  11.3376 -0.562543 -3.86746
Spine1  1.44788 -0.958643 0.318727
HEad  -9.61776 -11.7524 1.30152
LeftShoulder1  2.42646 -5.95925 -19.1347
LeftArm  25.6119 16.822 -50.2713
LeftForeArm  -13.0395 -21.1377 -7.10514
LeftHand  -0.854205 0.542965 20.4258
RightShoulder  1.41785 2.2699 18.0566
RightArm  -4.66224 -10.3498 54.48
RightForeArm  22.1337 47.7558 10.7654
RightHand  -0.925905 0.276549 -18.9399
LeftUpLeg  -5.84763 1.634 4.15329
LeftLeg  16.4358 8.39524 3.55911
LeftFoot  1.04156 1.29478 -11.9693
LeftToes  -3.13779e-010 -2.47553e-011 -5.36621e-011
88
root  3.10237 40.4459 0.729969 -12.6832 -83.334 10.7636
RightUpLeg  -0.819552 -8.63975 -10.2935
RightLeg  13.3566 -4.96101 -1.81905
RightFoot  1.87216 -1.89057 16.3512
RightToes  7.56698e-010 0 -3.6325e-017
Spine  12.4093 -0.196796 -2.81921
Spine1  1.80549 -0.651484 1.11077
HEad  -10.2566 -12.0102 1.29237
LeftShoulder1  2.43945 -6.12413 -18.8069
LeftArm  25.5385 19.9327 -51.353
LeftForeArm  -12.251 -25.2119 -5.78277
LeftHand  -0.936536 0.330557 21.4371
RightShoulder  1.32539 2.01589 17.4701
RightArm  -8.0507 -10.6412 54.35
RightForeArm  29.3945 57.5282 15.1569
RightHand  -0.83946 0.28192 -17.2026
LeftUpLeg  -8.95621 -0.330294 4.59643
LeftLeg  21.469 10.3481 4.71697
LeftFoot  2.31193 1.63276 -13.7294
LeftToes  -3.13779e-010 -2.47553e-011 -5.36621e-011
89
root  3.25257 40.449 0.915686 -14.154 -84.5884 12.1199
RightUpLeg  -2.21482 -7.29759 -10.8386
RightLeg  15.3033 -1.39768 -0.813006
RightFoot  1.90502 -2.07663 17.8795
RightToes  7.56698e-010 0 -3.6325e-017
Spine  13.5909 0.534694 -2.14512
Spine1  2.04922 0.130079 0.932328
HEad  -10.6702 -12.0884 1.31799
LeftShoulder1  2.46287 -6.29112 -18.5995
LeftArm  23.3833 22.1822 -52.5087
LeftForeArm  -8.47518 -26.9933 -6.23875
LeftHand  -1.05057 0.0397659 22.7273
RightShoulder  1.29415 1.93283 17.244
RightArm  -11.1459 -10.0119 53.9228
RightForeArm  35.1163 65.3601 21.3044
RightHand  -0.81695 0.467184 -16.2319
LeftUpLeg  -11.825 -0.0548236 4.24649
LeftLeg  26.41 8.04401 4.63746
LeftFoot  1.50269 1.63957 -14.584
LeftToes  -3.13779e-010 -2.47553e-011 -5.36621e-011
